<?xml version="1.0" encoding="iso-8859-1"?>
<!-- Generator: Adobe Illustrator 19.0.0, SVG Export Plug-In . SVG Version: 6.00 Build 0)  -->
<svg version="1.1" id="Capa_1" xmlns="http://www.w3.org/2000/svg" xmlns:xlink="http://www.w3.org/1999/xlink" x="0px" y="0px"
	 viewBox="0 0 512 512" style="enable-background:new 0 0 512 512;" xml:space="preserve">
<path style="fill:#464D59;" d="M88.437,263.307l-12.713,3.449c-23.795,6.454-45.756,18.37-64.137,34.801l0,0
	c-5.449,4.87-5.449,13.397,0,18.267l0,0c18.382,16.431,40.343,28.347,64.138,34.801l12.713,3.449L88.437,263.307L88.437,263.307z"/>
<path style="fill:#8BCDD8;" d="M218.355,235.121h67.128c45.633,0,82.626-36.993,82.626-82.626l0,0
	c0-45.633-36.993-82.626-82.626-82.626l0,0c-45.633,0-82.626,36.993-82.626,82.626v67.128
	C202.858,228.183,209.796,235.121,218.355,235.121z"/>
<path style="fill:#464D59;" d="M117.761,493.933c-3.817,0-7.665-1.187-10.958-3.649c-8.108-6.059-9.768-17.545-3.707-25.653
	c13.912-18.613,13.912-36.772,13.912-64.261c0-10.122,8.206-18.328,18.328-18.328s18.328,8.206,18.328,18.328
	c0,29.742,0,57.833-21.207,86.207C128.857,491.391,123.343,493.933,117.761,493.933z"/>
<path style="opacity:0.14;enable-background:new    ;" d="M135.335,382.043c-10.122,0-18.328,8.206-18.328,18.328
	c0,11.943-0.002,22.123-1.142,31.346c10.93,5.386,22.853,9.061,35.426,10.664c2.364-13.765,2.371-27.696,2.371-42.01
	C153.662,390.249,145.457,382.043,135.335,382.043z"/>
<g>
	<path style="fill:#464D59;" d="M189.069,493.933c-3.817,0-7.666-1.187-10.958-3.649c-8.108-6.06-9.768-17.545-3.707-25.653
		c13.913-18.613,13.913-36.773,13.913-64.261c0-10.122,8.206-18.328,18.328-18.328c10.122,0,18.328,8.206,18.328,18.328
		c0,29.742,0,57.833-21.208,86.207C200.165,491.391,194.651,493.933,189.069,493.933z"/>
	<path style="fill:#464D59;" d="M260.379,493.933c-3.817,0-7.665-1.187-10.958-3.649c-8.108-6.059-9.768-17.545-3.707-25.653
		c13.911-18.613,13.911-36.772,13.911-64.261c0-10.122,8.206-18.328,18.328-18.328s18.328,8.206,18.328,18.328
		c0,29.742,0,57.833-21.207,86.207C271.474,491.391,265.961,493.933,260.379,493.933z"/>
</g>
<path style="opacity:0.14;enable-background:new    ;" d="M277.952,382.043c-10.122,0-18.328,8.206-18.328,18.328
	c0,17.146-0.001,30.663-3.377,42.924h37.502c2.524-14.062,2.53-28.293,2.53-42.924C296.28,390.249,288.074,382.043,277.952,382.043z
	"/>
<path style="fill:#464D59;" d="M331.688,493.933c-3.817,0-7.665-1.187-10.958-3.649c-8.108-6.059-9.768-17.545-3.707-25.653
	c13.912-18.613,13.912-36.772,13.912-64.261c0-10.122,8.206-18.328,18.328-18.328s18.328,8.206,18.328,18.328
	c0,29.742,0,57.833-21.207,86.207C342.784,491.391,337.27,493.933,331.688,493.933z"/>
<path style="opacity:0.14;enable-background:new    ;" d="M349.262,382.043c-10.122,0-18.328,8.206-18.328,18.328
	c0,15.638-0.004,28.255-2.565,39.655c14.216-3.495,27.374-9.678,38.903-17.984c0.315-7.143,0.317-14.357,0.317-21.671
	C367.589,390.249,359.384,382.043,349.262,382.043z"/>
<path style="fill:#F7D88B;" d="M301.32,423.64H165.717c-62.381,0-112.95-50.57-112.95-112.95l0,0
	c0-62.381,50.57-112.95,112.95-112.95H301.32c62.381,0,112.95,50.57,112.95,112.95l0,0C414.27,373.071,363.701,423.64,301.32,423.64
	z"/>
<path style="opacity:0.14;enable-background:new    ;" d="M206.644,382.043c-10.122,0-18.328,8.206-18.328,18.328
	c0,17.146-0.001,30.662-3.378,42.924h37.502c2.525-14.062,2.53-28.293,2.53-42.924C224.972,390.249,216.766,382.043,206.644,382.043
	z"/>
<path style="fill:#464D59;" d="M165.717,197.739c-2.192,0-4.366,0.069-6.527,0.192c-43.702,53.542-41.346,171.633,19.975,225.709
	h103.729c-61.393-54.139-63.685-172.449-19.822-225.901L165.717,197.739L165.717,197.739z"/>
<path style="opacity:0.14;enable-background:new    ;" d="M301.32,197.739h-94.134c-9.408,16.57-14.684,35.157-14.684,54.795
	c0,69.639,66.331,126.094,148.155,126.094c20.414,0,39.862-3.515,57.558-9.871c10.191-16.969,16.056-36.832,16.056-58.067l0,0
	C414.27,248.309,363.701,197.739,301.32,197.739z"/>
<path style="fill:#ABDFEB;" d="M200.766,235.121h-67.128c-45.633,0-82.626-36.993-82.626-82.626l0,0
	c0-45.633,36.993-82.626,82.626-82.626l0,0c45.633,0,82.626,36.993,82.626,82.626v67.128
	C216.264,228.183,209.325,235.121,200.766,235.121z"/>
<ellipse style="fill:#F7D88B;" cx="356.35" cy="230.359" rx="148.16" ry="126.09"/>
<g>
	<ellipse style="fill:#F27281;" cx="290.33" cy="228.379" rx="28.698" ry="22.853"/>
	<ellipse style="fill:#F27281;" cx="445.88" cy="228.379" rx="28.698" ry="22.853"/>
</g>
<g>
	<circle style="fill:#464D59;" cx="344.41" cy="39.179" r="21.11"/>
	<circle style="fill:#464D59;" cx="448.83" cy="39.179" r="21.11"/>
</g>
<path d="M488.142,159.219c-2.451-3.339-7.147-4.059-10.484-1.609c-3.339,2.451-4.06,7.145-1.609,10.484
	C489.755,186.772,497,208.303,497,230.361c0,65.393-63.098,118.594-140.655,118.594c-76.437,0-138.825-51.675-140.613-115.767
	c0-0.028-0.001-0.055-0.001-0.083c-0.025-0.912-0.041-1.827-0.041-2.744c0-47.184,32.854-88.017,80.285-107.1
	c0.126,3.363,0.383,6.336,0.745,8.734c0.561,3.716,3.76,6.381,7.406,6.381c0.373,0,0.75-0.027,1.13-0.085
	c4.096-0.619,6.914-4.44,6.296-8.536c-0.414-2.741-0.688-6.783-0.669-11.627c13.204-3.813,27.286-6.016,41.918-6.322
	c0.006,0,0.012,0,0.018,0c1.172-0.025,2.348-0.038,3.527-0.038c15.099,0,29.916,2.035,43.967,5.934
	c-0.039,5.693,0.277,10.646,0.828,14.294c0.562,3.716,3.76,6.381,7.406,6.381c0.373,0,0.75-0.027,1.13-0.085
	c4.096-0.619,6.914-4.44,6.296-8.536c-0.275-1.819-0.485-4.224-0.593-7.042c13.039,5.092,25.189,11.885,35.997,20.246
	c3.276,2.534,7.984,1.933,10.521-1.344c2.534-3.276,1.933-7.986-1.344-10.521c-13.316-10.301-28.451-18.445-44.715-24.212
	c1.323-14.827,5.356-32.785,14.835-45.605c4.943,4.069,11.269,6.515,18.156,6.515c15.777,0,28.613-12.836,28.613-28.613
	s-12.836-28.613-28.613-28.613s-28.613,12.836-28.613,28.613c0,3.248,0.552,6.367,1.553,9.279
	c-11.489,13.255-16.729,30.851-19.098,43.86c-0.618,3.396-1.093,6.784-1.456,10.103c-14.422-3.717-29.52-5.653-44.87-5.653
	c-0.022,0-0.044,0.001-0.067,0.001c-9.388-11.904-21.546-21.131-35.189-27.017c1.51-2.993,3.218-5.844,5.163-8.475
	c4.943,4.069,11.269,6.515,18.156,6.515c15.777,0,28.613-12.836,28.613-28.613s-12.836-28.613-28.613-28.613
	s-28.613,12.836-28.613,28.613c0,3.248,0.552,6.367,1.553,9.279c-4.363,5.034-7.843,10.68-10.585,16.48
	c-6.903-1.688-14.043-2.568-21.279-2.568c-31.102,0-59.553,15.941-75.936,41.588c-16.037-24.994-44.072-41.588-75.91-41.588
	c-49.695,0-90.126,40.431-90.126,90.126c0,29.926,14.664,56.486,37.18,72.887c-11.823,11.775-20.957,25.745-26.99,40.993
	c-17.315,7.166-33.154,17.107-47.116,29.587C2.4,299.708-0.001,305.075,0,310.69c0,5.615,2.401,10.982,6.588,14.725
	c13.966,12.483,29.808,22.427,47.127,29.592c10.6,26.694,30.482,48.726,55.639,62.103c-0.537,18.369-2.939,30.553-12.265,43.031
	c-4.131,5.525-5.862,12.329-4.876,19.157c0.987,6.829,4.574,12.863,10.099,16.992c4.499,3.363,9.842,5.142,15.449,5.142
	c8.111,0,15.851-3.875,20.702-10.365c15.711-21.021,20.286-41.788,21.829-60.056c1.799,0.08,3.606,0.128,5.425,0.128h13.973
	c-1.303,10.29-4.22,19.539-11.294,29.002c-8.525,11.407-6.182,27.624,5.224,36.148c4.499,3.364,9.841,5.143,15.45,5.143
	c8.111,0,15.851-3.875,20.701-10.365c15.75-21.071,20.277-41.777,21.818-59.928h19.41c-1.303,10.29-4.22,19.539-11.292,29.002
	c-4.131,5.525-5.862,12.329-4.876,19.157c0.987,6.829,4.574,12.863,10.1,16.993c4.5,3.363,9.842,5.141,15.449,5.141
	c8.111,0,15.851-3.875,20.702-10.365c15.758-21.085,20.281-41.802,21.818-59.959c6.653-0.087,13.21-0.727,19.623-1.878
	c-1.232,11.4-4.185,21.117-11.506,30.911c-4.131,5.525-5.862,12.329-4.876,19.157c0.987,6.829,4.574,12.863,10.1,16.993
	c4.5,3.363,9.842,5.141,15.449,5.141c8.111,0,15.851-3.875,20.702-10.365c21.674-29,22.644-58.695,22.694-85.229
	c16.86-13.055,30.308-30.583,38.39-51.204C471.121,335.045,512,286.724,512,230.361C512,205.089,503.75,180.488,488.142,159.219z
	 M448.829,25.565c7.507,0,13.613,6.106,13.613,13.613s-6.107,13.613-13.613,13.613s-13.613-6.106-13.613-13.613
	S441.322,25.565,448.829,25.565z M344.408,25.565c7.507,0,13.613,6.106,13.613,13.613s-6.107,13.613-13.613,13.613
	s-13.613-6.106-13.613-13.613S336.901,25.565,344.408,25.565z M315.658,83.735c7.802,3.433,15.007,8.187,21.275,14.07
	c-8.579,0.92-16.94,2.448-25.031,4.52C312.643,96.314,313.84,89.956,315.658,83.735z M285.483,77.369
	c5.401,0,10.736,0.593,15.924,1.726c-1.393,4.671-2.42,9.173-3.157,13.222c-0.911,5.008-1.524,10.009-1.899,14.777
	c-30.189,10.864-55.57,29.667-72.587,53.349v-7.948c0-11.432-2.145-22.372-6.044-32.444
	C230.185,94.023,256.454,77.369,285.483,77.369z M47.904,335.788c-11.298-5.828-21.792-13.039-31.32-21.557
	C15.206,312.999,15,311.484,15,310.69c0-0.794,0.206-2.31,1.585-3.543c9.529-8.518,20.024-15.731,31.325-21.559
	c-1.738,8.174-2.644,16.579-2.644,25.101C45.267,319.295,46.181,327.689,47.904,335.788z M58.512,152.495
	c0-41.425,33.701-75.126,75.126-75.126s75.126,33.701,75.126,75.126v35.375c-4.911,12.531-7.707,25.886-8.034,39.752h-67.092
	C92.213,227.622,58.512,193.92,58.512,152.495z M126.448,482.087c-2.064,2.762-5.231,4.346-8.688,4.346
	c-2.345,0-4.581-0.745-6.469-2.156c-2.315-1.73-3.819-4.261-4.232-7.123c-0.414-2.862,0.312-5.715,2.044-8.031
	c11.165-14.938,14.14-29.662,15.01-45.391c6.82,2.518,13.93,4.43,21.263,5.683C144.015,446.104,140.077,463.852,126.448,482.087z
	 M197.757,482.087c-2.064,2.762-5.231,4.346-8.688,4.346c-2.346,0-4.581-0.745-6.468-2.156c-4.782-3.574-5.765-10.372-2.191-15.154
	c9.803-13.114,13.081-25.898,14.388-37.982h21.725C215.046,446.812,210.936,464.454,197.757,482.087z M182.064,416.14
	c-5.787-5.375-11.148-11.521-15.954-18.313c-2.394-3.382-7.074-4.181-10.455-1.789c-3.381,2.393-4.182,7.074-1.789,10.455
	c2.35,3.321,4.825,6.504,7.405,9.546C105.18,413.7,60.266,367.345,60.266,310.689c0-29.444,12.233-57.326,33.719-77.274
	c10.67,5.25,22.519,8.455,35.037,9.09c-11.752,41.935-9.049,91.659,7.594,132.285c1.189,2.903,3.989,4.659,6.943,4.659
	c0.946,0,1.91-0.181,2.84-0.561c3.833-1.57,5.668-5.95,4.098-9.783c-15.956-38.951-18.096-86.888-5.88-126.482h56.147
	c0.195,0,0.389-0.014,0.584-0.018c2.348,22.071,10.971,42.608,24.331,60.278c0.662,23.846,5.205,47.383,13.204,68.219
	c6.656,17.333,15.44,32.408,26.192,45.039L182.064,416.14L182.064,416.14z M269.066,482.087c-2.064,2.762-5.231,4.346-8.688,4.346
	c-2.345,0-4.582-0.745-6.47-2.156c-2.315-1.73-3.819-4.261-4.232-7.123c-0.414-2.862,0.311-5.715,2.044-8.031
	c9.802-13.114,13.08-25.898,14.386-37.982h21.725C286.355,446.81,282.245,464.453,269.066,482.087z M340.376,482.087
	c-2.065,2.762-5.232,4.346-8.688,4.346c-2.345,0-4.582-0.745-6.47-2.156c-2.316-1.73-3.819-4.261-4.233-7.123
	s0.312-5.715,2.044-8.031c10.449-13.98,13.793-27.793,14.874-43.698c7.697-2.464,15.09-5.697,22.087-9.607
	C359.528,438.395,356.788,460.126,340.376,482.087z M301.319,416.14h-15.518c-23.465-21.828-39.156-56.305-43.784-95.222
	c28.458,26.446,69.175,43.038,114.327,43.038c13.196,0,26.012-1.422,38.256-4.087C376.555,394.037,340.733,416.14,301.319,416.14z
	 M285.9,203.507c0,4.143,3.357,7.5,7.5,7.5s7.5-3.357,7.5-7.5c0-3.396,2.763-6.159,6.159-6.159s6.159,2.763,6.159,6.159
	c0,4.143,3.357,7.5,7.5,7.5c4.142,0,7.5-3.357,7.5-7.5c0-11.667-9.492-21.159-21.159-21.159S285.9,191.84,285.9,203.507z
	 M408.001,203.507c0,4.143,3.357,7.5,7.5,7.5s7.5-3.357,7.5-7.5c0-3.396,2.763-6.159,6.159-6.159s6.159,2.763,6.159,6.159
	c0,4.143,3.357,7.5,7.5,7.5s7.5-3.357,7.5-7.5c0-11.667-9.492-21.159-21.159-21.159S408.001,191.84,408.001,203.507z
	 M376.944,214.545c-2.23,2.561-5.451,4.028-8.835,4.028s-6.604-1.469-8.836-4.029c-2.721-3.122-7.458-3.447-10.582-0.725
	c-3.122,2.722-3.446,7.459-0.725,10.582c5.081,5.829,12.423,9.172,20.143,9.172c7.721,0,15.064-3.344,20.143-9.173
	c2.722-3.123,2.396-7.86-0.727-10.582C384.403,211.097,379.666,211.422,376.944,214.545z"/>
<g>
</g>
<g>
</g>
<g>
</g>
<g>
</g>
<g>
</g>
<g>
</g>
<g>
</g>
<g>
</g>
<g>
</g>
<g>
</g>
<g>
</g>
<g>
</g>
<g>
</g>
<g>
</g>
<g>
</g>
</svg>
