<?xml version="1.0" encoding="iso-8859-1"?>
<!-- Generator: Adobe Illustrator 19.0.0, SVG Export Plug-In . SVG Version: 6.00 Build 0)  -->
<svg version="1.1" id="Capa_1" xmlns="http://www.w3.org/2000/svg" xmlns:xlink="http://www.w3.org/1999/xlink" x="0px" y="0px"
	 viewBox="0 0 511.999 511.999" style="enable-background:new 0 0 511.999 511.999;" xml:space="preserve">
<path style="fill:#E4A2B7;" d="M216.521,275.353c-48.55-13.977-64.733-13.977-120.051,38.603
	c-29.62,29.62-36.001,71.263-14.254,93.01c13.662,13.662,35.172,16.208,56.623,8.879c2.396-0.819,5.055,0.278,6.188,2.543
	c7.007,14.014,18.174,24.089,32.197,27.2c30.026,6.661,61.722-21.092,70.794-61.986C257.09,342.709,265.071,289.33,216.521,275.353z
	"/>
<path style="fill:#ABDFEB;" d="M186.245,415.413c-0.778,0-1.522-0.081-2.273-0.248c-6.626-1.47-10.682-9.575-12.118-12.991
	l-9.422-22.416c-1.376-3.274-5.126-4.836-8.419-3.507l-22.549,9.099c-5.431,2.191-10.831,3.35-15.619,3.35
	c-3.569,0-8.478-0.654-11.593-3.769c-7.039-7.039-5.051-29.45,13.995-48.68c33.141-31.463,46.061-37.627,57.149-37.627
	c7.757,0,31.336-9.06,45.652-4.939c8.609,2.479,0.167,17.646,1.992,30.184c2.201,15.134-1.517,35.275-5.445,52.984
	C212.013,402.011,195.802,415.413,186.245,415.413L186.245,415.413z"/>
<path style="fill:#D9809C;" d="M229.182,301.402c-27.076,35.169-102.758,41.71-157.474-0.415S-8.731,184.754,18.345,149.585
	s107.002-41.218,171.56,2.217C247.199,190.349,256.258,266.233,229.182,301.402z"/>
<g>
	<circle style="fill:#E4A2B7;" cx="165.347" cy="197.785" r="16.481"/>
	<circle style="fill:#E4A2B7;" cx="101.344" cy="261.108" r="16.481"/>
	<circle style="fill:#E4A2B7;" cx="161.976" cy="257.078" r="16.481"/>
</g>
<ellipse transform="matrix(0.3429 -0.9394 0.9394 0.3429 -123.1787 199.9661)" style="fill:#F4CF7A;" cx="81.342" cy="188.029" rx="25.591" ry="31.496"/>
<path style="opacity:0.1;enable-background:new    ;" d="M237.61,286.478c15.635-38.61,2.436-100.941-47.704-134.676
	c-2.269-1.527-4.56-2.986-6.864-4.391c-0.303,2.36-0.496,4.744-0.574,7.146c-0.42,12.992,2.53,25.905,8.531,37.339
	c6.916,13.178,10.572,27.424,10.572,41.199v88.691c-28.93,12.354-69.969,11.846-106.592-6.291
	c-5.515,5.748-10.176,11.913-13.951,18.279c37.46,24.236,82.341,27.814,114.731,16.475c2.84-0.994,5.811,1.084,5.811,4.093v42.024
	c0,15.025,5.957,28.676,15.62,38.746c14.341-11.056,25.91-29.345,30.827-51.51C255.451,350.091,262.145,308.205,237.61,286.478z"/>
<path style="fill:#E4A2B7;" d="M295.479,275.353c48.55-13.977,64.733-13.977,120.051,38.603c29.62,29.62,36.002,71.263,14.254,93.01
	c-13.662,13.662-35.172,16.208-56.623,8.879c-2.396-0.819-5.055,0.278-6.188,2.543c-7.007,14.014-18.175,24.089-32.197,27.2
	c-30.026,6.661-61.722-21.092-70.794-61.986C254.911,342.709,246.93,289.33,295.479,275.353z"/>
<path style="fill:#ABDFEB;" d="M325.756,415.413c0.778,0,1.522-0.081,2.273-0.248c6.626-1.47,10.682-9.575,12.118-12.991
	l9.422-22.416c1.376-3.274,5.126-4.836,8.419-3.507l22.549,9.099c5.431,2.191,10.831,3.35,15.618,3.35
	c3.569,0,8.478-0.654,11.593-3.769c7.039-7.039,5.051-29.45-13.995-48.68c-33.141-31.463-46.061-37.627-57.149-37.627
	c-7.757,0-31.336-9.06-45.652-4.939c-8.609,2.479-0.167,17.646-1.992,30.184c-2.202,15.134,1.517,35.275,5.445,52.984
	C299.988,402.011,316.198,415.413,325.756,415.413C325.756,415.413,325.755,415.413,325.756,415.413z"/>
<path style="fill:#D9809C;" d="M282.818,301.402c27.076,35.169,102.758,41.71,157.474-0.415
	c54.716-42.125,80.439-116.232,53.363-151.402s-107.002-41.218-171.56,2.217C264.802,190.349,255.742,266.233,282.818,301.402z"/>
<g>
	<circle style="fill:#E4A2B7;" cx="346.653" cy="197.785" r="16.481"/>
	<circle style="fill:#E4A2B7;" cx="410.656" cy="261.108" r="16.481"/>
	<circle style="fill:#E4A2B7;" cx="350.023" cy="257.078" r="16.481"/>
</g>
<ellipse transform="matrix(0.3429 0.9394 -0.9394 0.3429 459.6047 -280.9803)" style="fill:#F4CF7A;" cx="430.641" cy="188.026" rx="25.591" ry="31.496"/>
<path style="opacity:0.1;enable-background:new    ;" d="M274.391,286.478c-15.635-38.61-2.436-100.941,47.704-134.676
	c2.269-1.527,4.56-2.986,6.864-4.391c0.303,2.36,0.496,4.744,0.574,7.146c0.42,12.992-2.53,25.905-8.531,37.339
	c-6.917,13.178-10.572,27.424-10.572,41.199v88.691c28.93,12.354,69.969,11.846,106.592-6.291
	c5.515,5.748,10.176,11.913,13.951,18.279c-37.46,24.236-82.341,27.814-114.731,16.475c-2.84-0.994-5.811,1.084-5.811,4.093v42.024
	c0,15.025-5.957,28.676-15.62,38.746c-14.341-11.056-25.91-29.345-30.827-51.51C256.549,350.091,249.856,308.205,274.391,286.478z"
	/>
<path style="fill:#F7D88B;" d="M256,101.357c-29.541,0.411-53.903,24.302-54.86,53.83c-0.324,10.004,1.995,19.437,6.31,27.658
	c8.159,15.546,12.803,32.693,12.803,50.25v163.27c0,20.181,16.36,36.54,36.54,36.54l0,0c20.181,0,36.54-16.36,36.54-36.54V233.707
	c0-17.609,4.303-34.958,12.605-50.487c4.172-7.803,6.538-16.717,6.538-26.185C312.477,126.017,287.117,100.923,256,101.357z"/>
<g>
	<rect x="220.259" y="257.078" style="fill:#FFFFFF;" width="73.083" height="35.301"/>
	<rect x="220.259" y="326.96" style="fill:#FFFFFF;" width="73.083" height="35.301"/>
</g>
<path d="M499.598,145.009c-9.436-12.256-24.45-21.476-43.419-26.663c-3.999-1.092-8.121,1.261-9.213,5.256
	c-1.093,3.996,1.261,8.12,5.256,9.212c15.792,4.318,28.064,11.698,35.489,21.344c11.357,14.754,12.398,38.822,2.855,66.034
	c-9.958,28.397-29.951,55.678-54.851,74.849c-21.452,16.516-48.164,26.298-75.214,27.545c-23.163,1.071-44.667-4.199-59.669-14.522
	v-74.359c0-16.375,4.053-32.609,11.719-46.951c3.953-7.394,6.388-15.579,7.158-23.954c2.146-1.677,4.345-3.279,6.569-4.776
	c28.025-18.856,61.089-29.27,93.1-29.325c4.143-0.007,7.494-3.371,7.487-7.513c-0.007-4.138-3.363-7.487-7.5-7.487h-0.013
	c-34.604,0.06-70.258,11.162-100.53,31.274c-2.387-12.428-8.449-23.837-17.669-32.928c-2.627-2.591-5.449-4.906-8.416-6.968
	c7.146-14.397,19.637-26.939,33.627-32.728c3.828-1.584,5.647-5.971,4.063-9.798c-1.583-3.827-5.971-5.649-9.797-4.063
	c-17.325,7.169-32.408,22.094-41.16,39.556c-7.416-2.847-15.382-4.296-23.578-4.187c-7.532,0.105-14.876,1.566-21.758,4.232
	c-8.748-17.482-23.843-32.426-41.183-39.6c-3.827-1.584-8.213,0.235-9.798,4.063c-1.584,3.828,0.235,8.214,4.063,9.798
	c14.015,5.799,26.522,18.374,33.662,32.801c-2.918,2.033-5.695,4.31-8.283,6.849c-9.499,9.32-15.724,21.131-18.009,33.926
	c-0.166-0.113-0.33-0.233-0.497-0.345c-68.671-46.202-152.562-38.406-181.691-0.57c-14.511,18.848-16.379,48.061-5.125,80.149
	c10.896,31.069,32.712,60.873,59.855,81.771c5.09,3.919,10.445,7.491,16.007,10.706c-25.682,31.869-28.838,72.022-6.227,94.634
	c14.84,14.84,38.032,19.016,62.365,11.326c8.345,15.579,21.177,25.955,36.321,29.314c3.539,0.785,7.113,1.171,10.688,1.171
	c15.979,0,31.986-7.7,45.068-21.8c7.19,5.108,15.967,8.124,25.439,8.124c9.054,0,17.477-2.749,24.483-7.453
	c12.972,13.659,28.768,21.123,44.482,21.123c3.563,0,7.122-0.383,10.642-1.164c15.143-3.359,27.976-13.736,36.322-29.314
	c24.334,7.688,47.525,3.514,62.364-11.326c22.616-22.616,19.454-62.779-6.242-94.652c5.566-3.217,10.933-6.771,16.022-10.688
	c27.143-20.898,48.96-50.702,59.855-81.771C515.977,193.071,514.109,163.857,499.598,145.009z M354.704,337.724
	c2.149,0,4.316-0.049,6.49-0.15c6.842-0.315,13.661-1.146,20.4-2.42c2.248,2.066,4.56,4.224,6.911,6.456
	c16.939,17.158,16.999,34.961,13.941,38.018c-0.76,0.76-2.812,1.572-6.29,1.572c-3.834,0-8.264-0.97-12.811-2.805l-22.549-9.099
	c-7.055-2.845-15.193,0.542-18.141,7.556l-9.422,22.415c-1.928,4.585-4.736,8.112-6.832,8.577c-0.214,0.048-0.413,0.069-0.646,0.069
	c-4.775,0-18.933-9.722-24.026-32.683c-0.302-1.36-0.599-2.744-0.895-4.131v-45.597C315.94,333.411,334.714,337.724,354.704,337.724
	z M76.283,295.044c-24.9-19.17-44.893-46.452-54.851-74.849c-9.543-27.212-8.502-51.281,2.856-66.034
	c24.566-31.91,100.435-37.174,161.43,3.865c2.832,1.905,5.615,3.975,8.309,6.167c0.881,7.732,3.169,15.256,6.781,22.138
	c7.814,14.889,11.944,31.06,11.944,46.765v73.836C182.337,329.288,121.732,330.034,76.283,295.044z M178.847,438.266
	c-11.239-2.493-20.869-10.744-27.113-23.233c-2.806-5.608-9.392-8.311-15.321-6.284c-19.515,6.664-37.791,4.017-48.895-7.086
	c-17.354-17.354-12.963-51.053,9.31-77.022c5.289,2.37,10.716,4.434,16.244,6.179c-0.053,0.05-0.105,0.101-0.156,0.153
	c-5.276,5.327-9.635,11.15-12.956,17.307c-1.967,3.646-0.606,8.195,3.04,10.162c1.133,0.611,2.352,0.901,3.554,0.901
	c2.668,0,5.252-1.428,6.607-3.94c2.625-4.865,6.101-9.505,10.333-13.793c2.351-2.231,4.656-4.383,6.891-6.437
	c7.193,1.358,14.484,2.191,21.796,2.458c1.725,0.063,3.441,0.094,5.149,0.094c20.741,0,40.08-4.627,55.422-13.076v38.673
	c-0.696,3.611-1.506,7.507-2.481,11.906c-5.094,22.962-19.252,32.684-24.027,32.684c-0.232,0-0.431-0.021-0.649-0.07
	c-2.092-0.464-4.9-3.991-6.828-8.575l-9.422-22.415c-2.947-7.012-11.083-10.402-18.141-7.556l-22.549,9.099
	c-4.546,1.835-8.976,2.805-12.81,2.805c-3.478,0-5.53-0.813-6.29-1.572c-0.118-0.118-0.428-0.483-0.752-1.313
	c-1.503-3.859-5.851-5.77-9.711-4.266c-3.859,1.503-5.77,5.851-4.266,9.711c0.996,2.557,2.383,4.736,4.122,6.475
	c3.903,3.902,9.746,5.965,16.897,5.965c5.74,0,12.111-1.347,18.425-3.895l21.631-8.729l9.039,21.504
	c2.346,5.579,7.728,15.26,17.405,17.406c1.29,0.287,2.566,0.426,3.901,0.426c8.812,0,19.24-6.438,27.348-18
	c1.21,6.127,3.699,11.797,7.17,16.731C208.358,435.233,193.015,441.408,178.847,438.266z M285.833,371.915c0,0.021,0,0.041,0,0.062
	v24.389c0,16.013-13.026,29.04-29.04,29.04c-16.013,0-29.04-13.027-29.04-29.04v-32.409c0-0.011,0-0.021,0-0.032v-130.83
	c0-18.125-4.724-36.706-13.663-53.736c-3.838-7.314-5.725-15.589-5.454-23.93c0.455-14.052,7.218-26.73,17.474-35.301
	c0.154,0.753,0.296,1.505,0.417,2.258c0.591,3.688,3.777,6.315,7.396,6.315c0.395,0,0.794-0.031,1.196-0.095
	c4.09-0.655,6.874-4.502,6.219-8.592c-0.424-2.644-1.015-5.279-1.748-7.891c5.165-2.026,10.731-3.185,16.514-3.266
	c6.224-0.088,12.279,1.009,17.921,3.167c-0.746,2.644-1.348,5.312-1.777,7.989c-0.655,4.09,2.129,7.937,6.219,8.592
	c0.402,0.064,0.802,0.095,1.195,0.095c3.62,0,6.806-2.627,7.397-6.315c0.131-0.819,0.29-1.638,0.46-2.456
	c1.066,0.886,2.106,1.812,3.104,2.796c9.255,9.127,14.353,21.312,14.353,34.308c0,0.67-0.034,1.337-0.062,2.005
	c0,0.006-0.001,0.012-0.001,0.018c-0.304,7.209-2.208,14.301-5.59,20.627c-8.825,16.51-13.491,35.19-13.491,54.023v138.209H285.833z
	 M424.48,401.663c-11.101,11.103-29.381,13.752-48.894,7.086c-5.933-2.027-12.517,0.676-15.321,6.286
	c-6.244,12.487-15.874,20.739-27.113,23.232c-13.786,3.055-28.775-2.761-41.018-15.655c3.506-4.708,6.084-10.14,7.488-16.025
	c7.916,10.507,17.754,16.326,26.131,16.326c1.335,0,2.611-0.14,3.897-0.425c9.681-2.148,15.062-11.827,17.409-17.408l9.038-21.503
	l21.631,8.729c6.314,2.548,12.685,3.895,18.425,3.895c7.151,0,12.994-2.063,16.898-5.966c10.627-10.627,7.504-37.579-13.97-59.261
	c-0.055-0.055-0.109-0.108-0.165-0.161c-0.003-0.003-0.006-0.006-0.009-0.009c5.529-1.746,10.958-3.806,16.25-6.176
	C437.444,350.599,441.837,384.307,424.48,401.663z M394.022,201.399c3.133,8.583,10.046,15.102,19.469,18.353
	c4.14,1.429,8.553,2.141,13.051,2.141c5.137,0,10.384-0.93,15.459-2.781c20.198-7.373,31.541-27.316,25.284-44.456
	c-6.257-17.14-27.78-25.085-47.978-17.713C399.108,164.316,387.765,184.259,394.022,201.399z M434.857,169.148
	c8.543,0,15.882,3.924,18.338,10.65c3.42,9.37-3.909,20.684-16.338,25.221c-6.29,2.296-12.851,2.492-18.473,0.552
	c-5.069-1.75-8.717-5.058-10.271-9.316c-3.42-9.37,3.909-20.684,16.339-25.221C427.957,169.754,431.499,169.148,434.857,169.148z
	 M92.695,156.943c-20.199-7.372-41.722,0.572-47.979,17.713c-3.133,8.583-2.044,18.023,3.067,26.579
	c4.811,8.054,12.701,14.403,22.217,17.877c5.074,1.852,10.32,2.781,15.458,2.781c4.498,0,8.911-0.712,13.051-2.141
	c9.421-3.251,16.337-9.769,19.469-18.353c3.133-8.583,2.044-18.023-3.067-26.579C110.1,166.765,102.21,160.417,92.695,156.943z
	 M103.887,196.255c-1.554,4.258-5.202,7.567-10.271,9.316c-5.621,1.94-12.181,1.744-18.472-0.552
	c-6.289-2.296-11.433-6.372-14.483-11.477c-2.75-4.604-3.409-9.484-1.854-13.743c2.456-6.727,9.792-10.65,18.337-10.65
	c3.356,0,6.9,0.606,10.406,1.886c6.29,2.296,11.433,6.372,14.484,11.478C104.783,187.116,105.442,191.996,103.887,196.255z"/>
<g>
</g>
<g>
</g>
<g>
</g>
<g>
</g>
<g>
</g>
<g>
</g>
<g>
</g>
<g>
</g>
<g>
</g>
<g>
</g>
<g>
</g>
<g>
</g>
<g>
</g>
<g>
</g>
<g>
</g>
</svg>
