<?xml version="1.0" encoding="iso-8859-1"?>
<!-- Generator: Adobe Illustrator 19.0.0, SVG Export Plug-In . SVG Version: 6.00 Build 0)  -->
<svg version="1.1" id="Capa_1" xmlns="http://www.w3.org/2000/svg" xmlns:xlink="http://www.w3.org/1999/xlink" x="0px" y="0px"
	 viewBox="0 0 512.002 512.002" style="enable-background:new 0 0 512.002 512.002;" xml:space="preserve">
<path style="fill:#67C787;" d="M441.882,316.761c10.784,3.899,15.421,16.638,9.666,26.557
	c-12.975,22.365-40.251,59.165-86.025,75.826c-34.926,12.712-77.878,1.683-88.449-27.36s15.243-65.101,50.169-77.813
	C373.017,297.311,417.567,307.969,441.882,316.761z"/>
<path style="opacity:0.1;enable-background:new    ;" d="M321.948,382.954c-3.064,0-5.94-1.891-7.049-4.937
	c-1.417-3.892,0.591-8.196,4.482-9.613l68.226-24.832c3.894-1.419,8.197,0.591,9.613,4.483c1.417,3.892-0.591,8.196-4.482,9.613
	L324.513,382.5C323.666,382.808,322.8,382.954,321.948,382.954z"/>
<path style="fill:#67C787;" d="M70.12,316.761c-10.784,3.899-15.42,16.638-9.666,26.557c12.975,22.365,40.251,59.165,86.025,75.826
	c34.926,12.712,77.878,1.683,88.449-27.36c10.571-29.043-15.243-65.101-50.169-77.813C138.985,297.311,94.435,307.969,70.12,316.761
	z"/>
<path style="opacity:0.1;enable-background:new    ;" d="M190.054,382.954c-0.852,0-1.717-0.146-2.564-0.454l-68.226-24.832
	c-3.892-1.417-5.899-5.721-4.482-9.613c1.416-3.892,5.715-5.9,9.613-4.483l68.225,24.832c3.892,1.417,5.9,5.721,4.482,9.613
	C195.994,381.062,193.117,382.954,190.054,382.954z"/>
<path style="fill:#A8EFBB;" d="M287.755,236.624h-63.508v244.27c0,13.037,10.568,23.605,23.605,23.605h16.298
	c13.037,0,23.605-10.568,23.605-23.605V236.624z"/>
<path style="opacity:0.1;enable-background:new    ;" d="M224.247,369.905c2.53,0.29,4.921,1.634,6.449,3.912
	c5.652,8.425,11.297,15.418,15.817,20.574c5.031,5.739,13.945,5.739,18.976,0c4.521-5.156,10.166-12.15,15.818-20.574
	c1.528-2.278,3.918-3.623,6.448-3.912V236.624h-63.509v133.281H224.247z"/>
<path style="fill:#F1C650;" d="M419.003,114.375c-14.691-4.984-40.239-11.703-67.449-9.941c-4.416,0.286-8.107-3.405-7.821-7.821
	c1.762-27.21-4.957-52.759-9.941-67.449c-2.451-7.224-10.697-10.64-17.538-7.265c-13.912,6.864-36.729,20.178-54.723,40.665
	c-2.92,3.325-8.14,3.325-11.06,0c-17.994-20.487-40.811-33.801-54.723-40.665c-6.841-3.375-15.087,0.04-17.538,7.264
	c-4.984,14.691-11.703,40.239-9.941,67.45c0.286,4.416-3.405,8.107-7.821,7.821c-27.21-1.762-52.759,4.957-67.449,9.941
	c-7.224,2.451-10.64,10.697-7.265,17.538c6.864,13.912,20.178,36.729,40.665,54.723c3.325,2.92,3.325,8.14,0,11.06
	c-20.487,17.995-33.801,40.811-40.665,54.723c-3.375,6.841,0.04,15.087,7.265,17.538c14.691,4.984,40.239,11.703,67.449,9.941
	c4.416-0.286,8.107,3.405,7.821,7.821c-1.762,27.21,4.957,52.759,9.941,67.449c2.451,7.224,10.697,10.64,17.538,7.265
	c13.912-6.864,36.729-20.178,54.723-40.665c2.92-3.324,8.14-3.324,11.06,0c17.994,20.487,40.811,33.801,54.723,40.665
	c6.841,3.375,15.087-0.04,17.538-7.265c4.984-14.691,11.703-40.239,9.941-67.449c-0.286-4.416,3.405-8.107,7.821-7.821
	c27.21,1.762,52.759-4.957,67.449-9.941c7.224-2.451,10.64-10.697,7.265-17.538c-6.864-13.912-20.178-36.729-40.665-54.723
	c-3.324-2.92-3.324-8.14,0-11.06c20.487-17.994,33.801-40.811,40.665-54.723C429.643,125.072,426.228,116.826,419.003,114.375z"/>
<path style="fill:#EAC268;" d="M419.003,114.375c-14.691-4.984-40.239-11.703-67.449-9.941c-4.416,0.286-8.107-3.405-7.821-7.821
	c1.762-27.21-4.957-52.759-9.941-67.449c-2.451-7.224-10.697-10.64-17.538-7.265c-13.912,6.864-36.729,20.178-54.723,40.665
	c-2.92,3.325-8.14,3.325-11.06,0c-17.994-20.487-40.811-33.801-54.723-40.665c-6.841-3.375-15.087,0.04-17.538,7.264
	c-4.984,14.691-11.703,40.239-9.941,67.45c0.286,4.416-3.405,8.107-7.821,7.821c-27.21-1.762-52.759,4.957-67.449,9.941
	c-7.224,2.451-10.64,10.697-7.265,17.538c6.864,13.912,20.178,36.729,40.665,54.723c3.325,2.92,3.325,8.14,0,11.06
	c-20.487,17.995-33.801,40.811-40.665,54.723c-3.375,6.841,0.04,15.087,7.265,17.538c14.691,4.984,40.239,11.703,67.449,9.941
	c4.416-0.286,8.107,3.405,7.821,7.821c-1.762,27.21,4.957,52.759,9.941,67.449c2.451,7.224,10.697,10.64,17.538,7.265
	c13.912-6.864,36.729-20.178,54.723-40.665c2.92-3.324,8.14-3.324,11.06,0c17.994,20.487,40.811,33.801,54.723,40.665
	c6.841,3.375,15.087-0.04,17.538-7.265c4.984-14.691,11.703-40.239,9.941-67.449c-0.286-4.416,3.405-8.107,7.821-7.821
	c27.21,1.762,52.759-4.957,67.449-9.941c7.224-2.451,10.64-10.697,7.265-17.538c-6.864-13.912-20.178-36.729-40.665-54.723
	c-3.324-2.92-3.324-8.14,0-11.06c20.487-17.994,33.801-40.811,40.665-54.723C429.643,125.072,426.228,116.826,419.003,114.375z"/>
<path style="fill:#F7D88B;" d="M436.365,182.675c-11.665-10.226-32.698-26.211-58.511-34.996c-4.189-1.426-6.187-6.248-4.233-10.218
	c12.041-24.465,15.61-50.64,16.628-66.119c0.5-7.612-5.811-13.924-13.423-13.423c-15.48,1.018-41.655,4.587-66.12,16.628
	c-3.97,1.954-8.793-0.044-10.218-4.232c-8.785-25.813-24.77-46.846-34.996-58.511c-5.029-5.736-13.954-5.736-18.983,0
	c-10.226,11.665-26.211,32.698-34.996,58.511c-1.426,4.189-6.248,6.187-10.218,4.232c-24.465-12.041-50.64-15.61-66.119-16.628
	c-7.612-0.5-13.923,5.811-13.423,13.423c1.018,15.48,4.587,41.655,16.628,66.119c1.954,3.97-0.044,8.793-4.233,10.218
	c-25.813,8.785-46.846,24.77-58.511,34.996c-5.737,5.029-5.737,13.954,0,18.983c11.665,10.226,32.697,26.211,58.511,34.996
	c4.189,1.426,6.186,6.248,4.233,10.218c-12.041,24.465-15.61,50.64-16.628,66.119c-0.5,7.612,5.811,13.924,13.423,13.423
	c15.48-1.017,41.655-4.587,66.119-16.628c3.97-1.954,8.793,0.044,10.218,4.233c8.785,25.814,24.77,46.846,34.996,58.511
	c5.029,5.736,13.954,5.736,18.983,0c10.226-11.665,26.211-32.697,34.996-58.511c1.426-4.189,6.248-6.186,10.218-4.233
	c24.465,12.041,50.64,15.61,66.12,16.628c7.612,0.5,13.923-5.811,13.423-13.423c-1.018-15.48-4.587-41.655-16.628-66.119
	c-1.954-3.97,0.044-8.793,4.233-10.218c25.813-8.785,46.846-24.77,58.511-34.996C442.102,196.629,442.102,187.704,436.365,182.675z"
	/>
<circle style="fill:#B38A82;" cx="256.001" cy="192.17" r="102.6"/>
<path style="opacity:0.1;enable-background:new    ;" d="M306.246,281.634c-137.968-1.647-130.585-147.094-84.274-186.282
	c-39.937,14.037-68.571,52.079-68.571,96.814c0,56.665,45.936,102.6,102.6,102.6C274.257,294.767,291.395,289.993,306.246,281.634z"
	/>
<g style="opacity:0.1;">
	<circle cx="320.891" cy="158.24" r="7.32"/>
	<circle cx="328.211" cy="196.57" r="7.32"/>
	<circle cx="298.931" cy="181.93" r="7.32"/>
	<circle cx="295.071" cy="139.93" r="7.32"/>
	<circle cx="190.641" cy="179.78" r="7.32"/>
	<circle cx="192.061" cy="232.17" r="7.32"/>
	<circle cx="212.741" cy="206.97" r="7.32"/>
	<circle cx="216.931" cy="256" r="7.32"/>
	<circle cx="313.571" cy="221.98" r="7.32"/>
</g>
<path d="M366.102,192.167c0-18.779-4.813-37.322-13.92-53.624c-2.021-3.617-6.591-4.91-10.205-2.89
	c-3.616,2.02-4.91,6.589-2.891,10.206c7.86,14.071,12.016,30.085,12.016,46.309c0,52.438-42.662,95.1-95.101,95.1
	s-95.101-42.662-95.101-95.1s42.662-95.102,95.101-95.102c22.692,0,44.664,8.123,61.867,22.873
	c3.146,2.696,7.878,2.332,10.575-0.812c2.696-3.145,2.333-7.879-0.812-10.576c-19.919-17.079-45.358-26.485-71.63-26.485
	c-60.71,0-110.101,49.391-110.101,110.101s49.391,110.1,110.101,110.1S366.102,252.876,366.102,192.167z M459.965,325.218
	c-2.635-7.24-8.297-12.893-15.532-15.51c-11.152-4.032-28.155-9.018-48.069-11.05c-0.595-4.523-1.377-9.326-2.397-14.32
	c11.303-2.189,20.912-5.061,27.447-7.278c5.488-1.863,9.909-6.001,12.127-11.356c2.218-5.354,2.018-11.405-0.546-16.604
	c-3.05-6.181-7.814-15.003-14.265-24.551c8.957-5.919,16.59-12,22.581-17.252c4.358-3.821,6.858-9.337,6.858-15.132
	c-0.001-5.795-2.5-11.31-6.858-15.131c-5.991-5.252-13.623-11.334-22.58-17.253c6.452-9.549,11.215-18.37,14.265-24.551
	c2.564-5.198,2.764-11.25,0.546-16.604c-2.219-5.354-6.639-9.493-12.128-11.355c-6.534-2.217-16.143-5.089-27.446-7.277
	c2.148-10.517,3.244-20.212,3.766-28.161c0.381-5.784-1.751-11.451-5.848-15.549c-4.099-4.098-9.753-6.231-15.551-5.851
	c-7.949,0.522-17.644,1.619-28.162,3.767c-2.189-11.303-5.062-20.913-7.278-27.446c-1.861-5.489-6-9.909-11.354-12.127
	s-11.406-2.019-16.604,0.545c-6.18,3.049-15.001,7.811-24.552,14.265c-5.919-8.958-12-16.589-17.252-22.58
	C267.311,2.5,261.796,0,256.001,0S244.69,2.5,240.87,6.858c-5.252,5.991-11.333,13.623-17.252,22.58
	c-9.549-6.453-18.371-11.215-24.551-14.265c-5.198-2.564-11.252-2.763-16.604-0.545c-5.355,2.218-9.493,6.638-11.355,12.127
	c-2.216,6.534-5.089,16.144-7.277,27.447c-10.518-2.148-20.214-3.245-28.163-3.767c-5.782-0.38-11.451,1.752-15.55,5.851
	c-4.097,4.098-6.229,9.765-5.848,15.548c0.522,7.949,1.618,17.644,3.766,28.161c-11.303,2.189-20.912,5.061-27.446,7.277
	c-5.489,1.862-9.91,6.001-12.128,11.355c-2.218,5.354-2.019,11.406,0.547,16.604c3.048,6.179,7.811,15,14.264,24.551
	c-8.958,5.919-16.59,12.001-22.58,17.253c-4.358,3.821-6.857,9.335-6.858,15.131c0,5.795,2.5,11.311,6.858,15.132
	c5.991,5.252,13.623,11.333,22.58,17.252c-6.451,9.547-11.215,18.369-14.265,24.551c-2.564,5.198-2.764,11.249-0.546,16.603
	c2.218,5.355,6.639,9.493,12.128,11.356c6.534,2.217,16.143,5.089,27.446,7.278c-1.02,4.995-1.802,9.797-2.397,14.32
	c-19.915,2.031-36.917,7.018-48.07,11.05c-7.235,2.617-12.897,8.27-15.532,15.51c-2.635,7.24-1.932,15.209,1.93,21.864
	c6.187,10.664,13.313,20.76,21.186,30.008c1.483,1.743,3.592,2.639,5.715,2.639c1.719,0,3.446-0.587,4.857-1.788
	c3.154-2.685,3.535-7.419,0.85-10.573c-7.29-8.565-13.896-17.923-19.633-27.812c-1.625-2.8-1.919-6.156-0.809-9.207
	s3.493-5.433,6.538-6.533c9.784-3.538,24.418-7.87,41.561-9.914c0.021,5.289,2.12,10.382,5.886,14.148
	c4.098,4.098,9.76,6.229,15.55,5.85c7.949-0.523,17.644-1.619,28.162-3.767c2.189,11.302,5.061,20.913,7.277,27.447
	c1.861,5.488,6,9.908,11.354,12.126c2.469,1.023,5.086,1.532,7.7,1.532c3.055,0,6.104-0.695,8.905-2.077
	c4.664-2.301,10.833-5.581,17.681-9.821v44.975c-16.136,13.082-43.972,16.421-67.702,7.783
	c-13.638-4.963-26.613-12.238-38.567-21.622c-3.256-2.557-7.972-1.989-10.53,1.268c-2.558,3.258-1.99,7.973,1.269,10.531
	c13.202,10.365,27.568,18.412,42.698,23.919c10.61,3.862,21.789,5.728,32.697,5.728c14.536,0,28.573-3.333,40.136-9.66v58.635
	c0,17.151,13.953,31.105,31.105,31.105h16.299c17.151,0,31.104-13.954,31.104-31.105V422.26c11.563,6.327,25.598,9.66,40.136,9.659
	c10.906,0,22.088-1.867,32.697-5.728c48.589-17.685,77.211-57.156,89.947-79.11C461.897,340.427,462.6,332.457,459.965,325.218z
	 M419.542,255.738c0.895,1.812,0.472,3.426,0.14,4.227c-0.332,0.801-1.174,2.242-3.088,2.891
	c-6.211,2.107-15.417,4.849-26.217,6.894c-2.478-8.573-5.707-17.392-9.956-26.047c9.123-3.116,17.641-7.067,25.454-11.376
	C412.074,241.419,416.644,249.863,419.542,255.738z M416.594,121.478c1.914,0.649,2.756,2.09,3.088,2.891s0.755,2.414-0.139,4.226
	c-2.899,5.875-7.468,14.319-13.667,23.412c-7.813-4.309-16.331-8.26-25.455-11.376c4.248-8.655,7.477-17.474,9.955-26.047
	C401.177,116.628,410.383,119.37,416.594,121.478z M319.573,28.625c1.813-0.893,3.425-0.471,4.227-0.139
	c0.801,0.332,2.24,1.174,2.89,3.088c2.107,6.211,4.849,15.417,6.895,26.218c-8.573,2.478-17.392,5.707-26.047,9.956
	c-3.116-9.123-7.068-17.642-11.376-25.455C305.255,36.092,313.699,31.523,319.573,28.625z M185.312,31.573
	c0.649-1.913,2.089-2.755,2.89-3.087c0.801-0.331,2.413-0.755,4.227,0.14c5.875,2.898,14.318,7.467,23.412,13.667
	c-4.309,7.813-8.261,16.332-11.377,25.455c-8.655-4.248-17.474-7.478-26.047-9.956C180.463,46.99,183.206,37.784,185.312,31.573z
	 M92.46,128.594c-0.894-1.812-0.471-3.426-0.14-4.226c0.332-0.801,1.174-2.242,3.088-2.891c6.211-2.107,15.417-4.85,26.218-6.895
	c2.478,8.573,5.707,17.392,9.955,26.047c-9.123,3.116-17.642,7.068-25.455,11.376C99.926,142.911,95.358,134.468,92.46,128.594z
	 M95.409,262.855c-1.915-0.649-2.757-2.09-3.089-2.891s-0.755-2.415,0.139-4.226c2.899-5.875,7.469-14.32,13.668-23.412
	c7.813,4.309,16.331,8.261,25.454,11.376c-4.248,8.655-7.477,17.474-9.955,26.047C110.825,267.705,101.619,264.963,95.409,262.855z
	 M192.43,355.707c-1.811,0.894-3.426,0.471-4.227,0.139c-0.801-0.332-2.241-1.174-2.89-3.087
	c-2.107-6.211-4.849-15.418-6.895-26.218c8.573-2.478,17.392-5.707,26.047-9.956c3.116,9.123,7.068,17.641,11.376,25.454
	C206.748,348.24,198.304,352.809,192.43,355.707z M280.255,480.895c0,8.88-7.225,16.105-16.104,16.105h-16.299
	c-8.88,0-16.105-7.225-16.105-16.105V366.326c3.179,4.162,6.274,7.898,9.123,11.147c3.82,4.359,9.335,6.859,15.131,6.859
	c5.796,0,11.31-2.5,15.131-6.858c2.849-3.25,5.944-6.986,9.123-11.148V480.895z M293.388,311.603
	c-8.579,25.213-24.693,45.898-33.536,55.983c-1.331,1.519-2.984,1.746-3.851,1.746c-0.866,0-2.52-0.227-3.852-1.747
	c-8.842-10.085-24.956-30.769-33.536-55.983c-1.374-4.039-4.431-7.294-8.385-8.933c-1.828-0.757-3.766-1.134-5.699-1.134
	c-2.247,0-4.488,0.509-6.547,1.522c-23.895,11.761-49.915,14.993-63.299,15.873c-2.015,0.138-3.346-0.876-3.959-1.489
	c-0.612-0.613-1.62-1.942-1.488-3.958c0.88-13.384,4.112-39.405,15.872-63.299c1.885-3.828,2.026-8.292,0.389-12.246
	c-1.639-3.954-4.895-7.011-8.934-8.385c-25.213-8.581-45.897-24.694-55.982-33.535c-1.52-1.332-1.747-2.985-1.747-3.853
	c0.001-0.867,0.228-2.52,1.747-3.852c10.085-8.841,30.769-24.955,55.982-33.536c4.039-1.374,7.295-4.43,8.933-8.384
	c1.639-3.955,1.497-8.418-0.387-12.247c-11.761-23.894-14.993-49.915-15.873-63.3c-0.132-2.016,0.876-3.345,1.488-3.958
	c0.613-0.613,1.947-1.621,3.959-1.489c13.384,0.88,39.403,4.112,63.301,15.873c3.827,1.883,8.29,2.024,12.245,0.386
	c3.954-1.638,7.01-4.894,8.385-8.933c8.58-25.214,24.693-45.897,33.535-55.983c1.332-1.515,2.985-1.742,3.852-1.742
	c0.867,0,2.52,0.227,3.852,1.747c8.842,10.085,24.955,30.768,33.536,55.983c1.374,4.039,4.43,7.294,8.384,8.932
	c3.953,1.638,8.415,1.498,12.247-0.387c23.896-11.761,49.915-14.993,63.298-15.873c2.034-0.126,3.347,0.876,3.96,1.489
	c0.612,0.613,1.62,1.942,1.488,3.959c-0.88,13.384-4.112,39.405-15.873,63.299c-1.884,3.829-2.025,8.292-0.387,12.247
	c1.638,3.954,4.893,7.01,8.933,8.384c25.214,8.581,45.897,24.694,55.982,33.536c1.52,1.332,1.746,2.985,1.747,3.852
	c0,0.867-0.227,2.52-1.747,3.853c-10.085,8.841-30.77,24.954-55.982,33.535c-4.039,1.375-7.295,4.431-8.934,8.385
	c-1.638,3.954-1.496,8.417,0.388,12.245c11.761,23.895,14.993,49.916,15.873,63.3c0.132,2.016-0.876,3.345-1.489,3.958
	c-0.612,0.613-1.942,1.628-3.958,1.489c-13.384-0.88-39.404-4.112-63.3-15.873c-3.826-1.883-8.291-2.024-12.245-0.387
	C297.819,304.309,294.763,307.564,293.388,311.603z M333.584,326.542c-2.046,10.8-4.788,20.007-6.895,26.218
	c-0.648,1.913-2.089,2.755-2.89,3.087c-0.802,0.332-2.416,0.754-4.228-0.139c-5.874-2.899-14.319-7.468-23.412-13.668
	c4.309-7.813,8.261-16.332,11.376-25.454C316.192,320.834,325.011,324.064,333.584,326.542z M445.061,339.555
	c-11.717,20.196-37.964,56.476-82.104,72.542c-23.731,8.638-51.567,5.299-67.702-7.783v-44.975
	c6.848,4.241,13.017,7.521,17.681,9.822c2.802,1.382,5.851,2.077,8.905,2.077c2.613,0,5.231-0.509,7.7-1.532
	c5.354-2.218,9.492-6.638,11.354-12.126c2.217-6.534,5.089-16.144,7.277-27.447c10.518,2.148,20.213,3.244,28.162,3.767
	c5.781,0.374,11.452-1.752,15.55-5.85c3.766-3.766,5.865-8.859,5.886-14.148c17.143,2.044,31.777,6.376,41.561,9.914
	c3.045,1.1,5.428,3.482,6.538,6.533C446.979,333.399,446.686,336.755,445.061,339.555z"/>
<g>
</g>
<g>
</g>
<g>
</g>
<g>
</g>
<g>
</g>
<g>
</g>
<g>
</g>
<g>
</g>
<g>
</g>
<g>
</g>
<g>
</g>
<g>
</g>
<g>
</g>
<g>
</g>
<g>
</g>
</svg>
